<?xml version="1.0" standalone="no"?>
<!DOCTYPE svg PUBLIC "-//W3C//DTD SVG 20010904//EN"
 "http://www.w3.org/TR/2001/REC-SVG-20010904/DTD/svg10.dtd">
<svg version="1.0" xmlns="http://www.w3.org/2000/svg"
 width="512.000000pt" height="512.000000pt" viewBox="0 0 512.000000 512.000000"
 preserveAspectRatio="xMidYMid meet">
<metadata>
Created by potrace 1.11, written by Peter Selinger 2001-2013
</metadata>
<g transform="translate(0.000000,512.000000) scale(0.100000,-0.100000)"
fill="#000000" stroke="none">
<path d="M2688 4946 l-57 -11 44 -90 c36 -76 115 -268 145 -355 27 -77 50
-197 50 -264 0 -84 -5 -89 -60 -61 -58 30 -111 30 -175 -1 -62 -29 -145 -97
-145 -119 0 -7 -7 -18 -16 -26 -8 -7 -25 -31 -36 -53 -33 -65 -76 -111 -125
-136 -62 -31 -101 -18 -178 56 -100 97 -217 130 -335 96 -209 -61 -374 -215
-474 -442 -37 -85 -58 -170 -42 -175 70 -21 64 -25 135 87 116 180 287 295
398 266 61 -16 135 -98 191 -211 29 -57 52 -108 52 -115 0 -6 -8 -13 -17 -16
-30 -9 78 5 152 19 39 8 201 37 360 65 344 61 428 78 397 79 -25 1 -24 17 4
73 23 44 44 149 44 217 0 45 6 73 19 95 60 98 54 312 -14 528 -32 103 -52 148
-138 317 -69 136 -103 192 -115 190 -4 -1 -33 -6 -64 -13z"/>
<path d="M2135 4655 c-110 -21 -186 -80 -238 -179 -27 -54 -31 -71 -31 -146
-1 -74 3 -92 28 -140 38 -74 89 -125 161 -163 53 -28 69 -32 140 -32 132 1
231 58 296 172 90 157 33 363 -124 452 -29 16 -72 32 -97 36 -25 3 -52 8 -60
9 -8 2 -42 -2 -75 -9z"/>
<path d="M3027 3540 c106 -16 152 -67 183 -202 10 -46 19 -75 19 -65 2 45 -32
159 -60 197 -35 49 -97 80 -154 79 -38 -1 -37 -2 12 -9z"/>
<path d="M580 3527 c-3 -2 -43 -7 -90 -10 -95 -6 -266 -34 -292 -48 -9 -5 -26
-9 -37 -9 -15 0 -22 -9 -26 -37 -4 -21 -11 -53 -15 -71 -8 -32 -7 -34 13 -29
92 22 211 31 427 31 211 1 252 -1 295 -17 28 -10 58 -24 69 -32 17 -13 17 -15
-9 -41 -65 -65 -80 -153 -44 -251 25 -67 45 -97 112 -173 67 -75 87 -118 87
-183 0 -63 -21 -87 -110 -130 -65 -31 -128 -93 -164 -161 -23 -44 -26 -60 -26
-155 0 -201 70 -362 225 -516 67 -68 171 -145 195 -145 6 0 18 16 26 36 17 40
21 31 -56 124 -99 119 -149 227 -157 335 -4 60 -1 76 19 114 27 51 93 93 179
115 72 19 219 39 228 31 3 -4 12 -25 18 -48 12 -40 13 -40 9 -7 -2 19 -25 152
-51 295 -74 413 -87 497 -87 547 1 80 42 134 128 169 46 19 47 19 12 14 -29
-4 -52 2 -109 30 -40 19 -83 35 -95 35 -13 0 -28 9 -34 20 -11 21 -112 93
-145 103 -11 3 -46 15 -77 26 -31 11 -72 22 -90 25 -48 8 -322 19 -328 13z"/>
<path d="M1920 3355 c-30 -7 -46 -13 -35 -13 11 -1 47 5 80 12 33 8 49 14 35
14 -14 0 -50 -6 -80 -13z"/>
<path d="M1731 3324 c-66 -12 -106 -25 -70 -23 35 2 201 37 174 37 -16 0 -63
-6 -104 -14z"/>
<path d="M1600 3300 l-35 -7 32 -2 c17 0 35 4 38 9 3 6 5 9 3 9 -2 -1 -19 -5
-38 -9z"/>
<path d="M1513 3283 c9 -2 23 -2 30 0 6 3 -1 5 -18 5 -16 0 -22 -2 -12 -5z"/>
<path d="M3232 3225 c0 -16 2 -22 5 -12 2 9 2 23 0 30 -3 6 -5 -1 -5 -18z"/>
<path d="M3242 3165 c0 -16 2 -22 5 -12 2 9 2 23 0 30 -3 6 -5 -1 -5 -18z"/>
<path d="M2217 3160 c3 -11 9 -20 15 -20 5 0 4 9 -2 20 -6 11 -12 20 -14 20
-2 0 -2 -9 1 -20z"/>
<path d="M2190 3161 c0 -6 4 -13 10 -16 6 -3 7 1 4 9 -7 18 -14 21 -14 7z"/>
<path d="M2167 3140 c10 -11 18 -20 19 -20 1 0 0 9 -3 20 -3 11 -12 20 -19 20
-11 0 -10 -5 3 -20z"/>
<path d="M2080 3140 c19 -13 30 -13 30 0 0 6 -10 10 -22 10 -19 0 -20 -2 -8
-10z"/>
<path d="M2130 3140 c8 -5 20 -10 25 -10 6 0 3 5 -5 10 -8 5 -19 10 -25 10 -5
0 -3 -5 5 -10z"/>
<path d="M2243 3115 c0 -8 4 -12 9 -9 5 3 6 10 3 15 -9 13 -12 11 -12 -6z"/>
<path d="M3251 3125 c-1 -13 44 -282 104 -620 55 -311 62 -346 64 -319 1 12
-6 59 -15 105 -9 46 -18 104 -19 129 -7 106 -131 757 -134 705z"/>
<path d="M2061 3084 c0 -11 3 -14 6 -6 3 7 2 16 -1 19 -3 4 -6 -2 -5 -13z"/>
<path d="M2266 3063 c-6 -14 -5 -15 5 -6 7 7 10 15 7 18 -3 3 -9 -2 -12 -12z"/>
<path d="M425 3031 c-70 -36 -79 -43 -121 -93 -69 -80 -93 -214 -59 -320 44
-134 154 -217 296 -226 118 -7 214 35 282 124 129 169 75 415 -113 511 -45 23
-71 29 -140 31 -79 3 -90 1 -145 -27z"/>
<path d="M2052 3050 c0 -8 3 -26 7 -40 7 -24 8 -24 12 7 3 18 2 30 -2 27 -4
-2 -10 2 -12 8 -4 9 -5 8 -5 -2z"/>
<path d="M2299 3017 c12 -20 20 -41 16 -47 -4 -6 -1 -9 7 -8 7 2 12 -3 11 -9
-2 -7 2 -13 7 -13 6 0 5 -12 -4 -28 -14 -26 -13 -28 7 -29 12 0 16 1 10 4 -17
6 -17 24 -1 21 7 -2 25 -22 40 -46 30 -45 34 -57 18 -47 -6 4 -7 -1 -3 -11 4
-11 8 -13 11 -6 2 7 8 10 12 7 5 -3 6 -13 3 -22 -5 -12 -3 -14 7 -8 10 6 12 4
7 -9 -4 -10 -3 -15 3 -11 12 8 43 -52 34 -68 -5 -9 -4 -9 6 0 11 10 -6 44 -89
182 -56 94 -107 173 -113 177 -7 4 -2 -9 11 -29z"/>
<path d="M2252 3015 c0 -16 2 -22 5 -12 2 9 2 23 0 30 -3 6 -5 -1 -5 -18z"/>
<path d="M2270 3006 c0 -2 8 -10 18 -17 15 -13 16 -12 3 4 -13 16 -21 21 -21
13z"/>
<path d="M2066 2965 c-3 -9 -6 -22 -5 -28 0 -7 5 -1 10 12 5 13 8 26 5 28 -2
2 -6 -3 -10 -12z"/>
<path d="M2033 2955 c-3 -9 -3 -18 -1 -21 3 -3 8 4 11 16 6 23 -1 27 -10 5z"/>
<path d="M2028 2865 c2 -14 8 -27 12 -30 4 -2 5 7 2 20 -2 14 -8 27 -12 30 -4
2 -5 -7 -2 -20z"/>
<path d="M2007 2823 c-4 -3 -7 -11 -7 -17 0 -6 5 -5 12 2 6 6 9 14 7 17 -3 3
-9 2 -12 -2z"/>
<path d="M2330 2821 c0 -5 5 -13 10 -16 6 -3 10 -2 10 4 0 5 -4 13 -10 16 -5
3 -10 2 -10 -4z"/>
<path d="M2087 2781 c-10 -12 -9 -13 3 -6 8 5 21 10 28 11 13 2 66 -74 131
-188 18 -32 37 -58 42 -58 6 0 8 -4 5 -9 -3 -4 1 -17 9 -27 13 -17 14 -17 15
-2 0 9 -6 19 -12 21 -10 4 -10 6 0 6 9 1 10 6 3 19 -6 11 -6 24 0 33 5 7 9 19
9 24 0 6 -4 4 -9 -4 -6 -9 -10 -10 -16 -2 -4 7 -3 18 2 24 4 7 -3 1 -16 -13
-17 -18 -22 -20 -17 -7 3 10 2 15 -4 12 -11 -7 -31 28 -27 47 2 7 2 10 0 5 -3
-4 -9 -4 -14 -1 -6 3 -5 12 3 22 11 13 10 15 -4 9 -14 -5 -16 -2 -12 22 4 18
0 32 -10 40 -18 15 -22 1 -5 -16 6 -6 10 -16 8 -22 -2 -6 -15 5 -28 25 -18 26
-21 38 -12 43 7 4 -4 7 -24 7 -20 -1 -42 -7 -48 -15z m210 -211 c-1 -11 -4
-20 -8 -20 -10 0 -20 30 -13 41 9 15 23 1 21 -21z"/>
<path d="M2226 2787 c3 -10 9 -15 12 -12 3 3 0 11 -7 18 -10 9 -11 8 -5 -6z"/>
<path d="M2200 2775 c7 -9 15 -13 17 -11 7 7 -7 26 -19 26 -6 0 -6 -6 2 -15z"/>
<path d="M1992 2750 c0 -14 2 -19 5 -12 2 6 2 18 0 25 -3 6 -5 1 -5 -13z"/>
<path d="M2109 2748 c-6 -19 -6 -39 0 -42 4 -3 8 6 9 20 1 13 0 24 -3 24 -3 0
-5 -1 -6 -2z"/>
<path d="M2220 2741 c0 -6 4 -13 10 -16 6 -3 7 1 4 9 -7 18 -14 21 -14 7z"/>
<path d="M2420 2741 c0 -7 -5 -9 -12 -5 -7 5 -8 3 -3 -5 5 -9 10 -10 18 -2 6
6 8 14 4 18 -4 3 -7 1 -7 -6z"/>
<path d="M2081 2724 c0 -11 3 -14 6 -6 3 7 2 16 -1 19 -3 4 -6 -2 -5 -13z"/>
<path d="M1977 2690 c-3 -11 -1 -20 4 -20 5 0 9 9 9 20 0 11 -2 20 -4 20 -2 0
-6 -9 -9 -20z"/>
<path d="M2096 2666 c-3 -13 -9 -32 -12 -43 -5 -12 -4 -15 3 -8 11 10 28 75
20 75 -3 0 -8 -11 -11 -24z"/>
<path d="M2515 2670 c6 -10 4 -12 -8 -7 -19 7 -29 -4 -19 -20 5 -6 13 -4 25 7
14 14 15 20 6 26 -8 5 -10 3 -4 -6z"/>
<path d="M1967 2643 c-4 -3 -7 -11 -7 -17 0 -6 5 -5 12 2 6 6 9 14 7 17 -3 3
-9 2 -12 -2z"/>
<path d="M2504 2617 c-2 -7 0 -24 6 -38 10 -22 10 -22 6 8 -3 19 -1 33 7 37 9
3 9 5 -1 5 -7 1 -15 -5 -18 -12z"/>
<path d="M1961 2591 c-6 -11 -11 -30 -10 -43 1 -20 2 -19 9 6 5 16 14 32 21
36 8 5 8 10 1 14 -6 4 -16 -2 -21 -13z"/>
<path d="M2534 2589 c0 -10 10 -22 21 -27 18 -8 21 -6 22 12 1 11 -1 15 -4 9
-3 -7 -9 -13 -15 -13 -6 0 -8 6 -5 14 3 8 0 16 -6 19 -7 3 -13 -3 -13 -14z"/>
<path d="M2081 2574 c0 -11 3 -14 6 -6 3 7 2 16 -1 19 -3 4 -6 -2 -5 -13z"/>
<path d="M2060 2553 c0 -4 5 -15 10 -23 8 -13 10 -13 10 2 0 9 -4 20 -10 23
-5 3 -10 3 -10 -2z"/>
<path d="M2560 2535 c0 -5 5 -17 10 -25 5 -8 10 -10 10 -5 0 6 -5 17 -10 25
-5 8 -10 11 -10 5z"/>
<path d="M1941 2504 c0 -11 3 -14 6 -6 3 7 2 16 -1 19 -3 4 -6 -2 -5 -13z"/>
<path d="M2597 2501 c3 -13 10 -18 21 -13 10 4 12 7 4 10 -7 2 -10 8 -6 13 3
5 -1 9 -9 9 -10 0 -13 -7 -10 -19z"/>
<path d="M2053 2483 c-7 -14 -10 -29 -8 -33 8 -13 -26 -174 -38 -183 -8 -6 -7
-7 3 -4 16 4 37 81 43 157 3 25 8 53 12 63 12 28 1 28 -12 0z"/>
<path d="M2005 2480 c-3 -6 1 -7 9 -4 18 7 21 14 7 14 -6 0 -13 -4 -16 -10z"/>
<path d="M1981 2464 c0 -11 3 -14 6 -6 3 7 2 16 -1 19 -3 4 -6 -2 -5 -13z"/>
<path d="M2341 2445 c12 -22 28 -49 35 -59 13 -18 13 -18 11 2 0 11 -5 18 -9
16 -4 -3 -8 1 -8 8 0 7 -12 27 -26 43 l-26 30 23 -40z"/>
<path d="M2365 2469 c-4 -6 -5 -12 -2 -15 2 -3 7 2 10 11 7 17 1 20 -8 4z"/>
<path d="M1931 2454 c0 -11 3 -14 6 -6 3 7 2 16 -1 19 -3 4 -6 -2 -5 -13z"/>
<path d="M3080 2460 c0 -6 7 -10 15 -10 8 0 15 2 15 4 0 2 -7 6 -15 10 -8 3
-15 1 -15 -4z"/>
<path d="M1921 2414 c0 -11 3 -14 6 -6 3 7 2 16 -1 19 -3 4 -6 -2 -5 -13z"/>
<path d="M2663 2405 c0 -8 5 -11 10 -8 6 4 8 -2 5 -13 -4 -14 0 -20 13 -21 16
-2 16 0 1 28 -19 32 -29 37 -29 14z"/>
<path d="M3221 2409 c-2 -31 -131 -46 -131 -16 0 6 -3 7 -6 4 -12 -11 17 -36
33 -30 10 4 14 2 9 -5 -9 -16 27 -24 57 -13 28 11 51 45 43 64 -2 7 -5 5 -5
-4z m-16 -38 c-12 -12 -65 -26 -65 -17 0 3 15 10 33 15 43 12 42 12 32 2z"/>
<path d="M2012 2390 c0 -14 2 -19 5 -12 2 6 2 18 0 25 -3 6 -5 1 -5 -13z"/>
<path d="M1911 2364 c0 -11 3 -14 6 -6 3 7 2 16 -1 19 -3 4 -6 -2 -5 -13z"/>
<path d="M2690 2341 c0 -6 4 -13 10 -16 6 -3 7 1 4 9 -7 18 -14 21 -14 7z"/>
<path d="M1900 2325 c0 -8 4 -15 10 -15 5 0 7 7 4 15 -4 8 -8 15 -10 15 -2 0
-4 -7 -4 -15z"/>
<path d="M2724 2306 c-1 -19 2 -23 15 -18 14 5 14 3 3 -11 -16 -19 -6 -41 14
-33 8 3 14 -1 14 -10 0 -8 7 -17 15 -20 9 -4 14 -12 13 -19 -2 -8 1 -14 6 -13
15 0 25 -26 15 -39 -7 -8 -7 -18 1 -30 11 -17 11 -17 6 0 -9 28 4 41 20 20 15
-20 18 -37 6 -29 -5 3 -9 -1 -9 -9 0 -10 4 -12 12 -5 9 7 18 3 30 -17 10 -15
18 -32 18 -39 0 -6 6 -11 12 -11 10 0 -78 147 -119 197 -6 8 -17 26 -24 40 -7
14 -21 35 -30 47 l-17 23 -1 -24z m36 -46 c0 -5 -5 -10 -11 -10 -5 0 -7 5 -4
10 3 6 8 10 11 10 2 0 4 -4 4 -10z"/>
<path d="M3985 2306 c-16 -12 -18 -29 -19 -172 -1 -148 -3 -164 -29 -234 -47
-128 -115 -189 -205 -185 -59 3 -138 23 -178 46 -67 37 -74 44 -74 72 0 37
-22 168 -27 163 -2 -2 1 -40 8 -83 15 -98 7 -143 -33 -189 -56 -64 -80 -70
-555 -150 -57 -9 -103 -21 -103 -26 0 -4 3 -8 8 -8 4 0 5 -28 4 -61 -5 -79 13
-232 39 -332 21 -84 61 -168 104 -219 14 -17 25 -40 24 -52 -5 -47 29 -127 89
-211 47 -65 143 -165 160 -165 6 0 12 -4 12 -9 0 -16 292 -211 315 -211 3 0
56 -25 119 -56 l115 -56 46 43 c25 24 45 46 45 49 0 4 -37 26 -82 49 -133 70
-270 160 -395 259 -90 71 -158 148 -164 187 -3 16 5 21 47 31 67 15 119 55
152 118 26 49 27 57 28 216 1 91 4 179 8 197 4 18 24 47 47 67 44 40 66 44
161 24 46 -10 71 -9 120 1 83 17 114 34 168 91 160 170 215 425 146 675 -3 11
-10 36 -15 55 -23 90 -43 108 -86 76z"/>
<path d="M1891 2287 c0 -9 -15 -74 -31 -144 -17 -69 -29 -131 -26 -137 2 -6 5
-1 5 12 1 12 6 22 12 22 6 0 8 9 4 20 -4 12 -2 20 5 20 6 0 8 5 5 11 -4 5 3
48 15 94 12 46 20 92 17 102 -4 17 -5 17 -6 0z"/>
<path d="M2353 2293 c9 -2 25 -2 35 0 9 3 1 5 -18 5 -19 0 -27 -2 -17 -5z"/>
<path d="M3170 2297 c0 -1 -4 -17 -9 -35 -7 -22 -6 -30 1 -26 6 4 9 1 6 -7 -3
-8 -17 -13 -34 -12 -28 2 -28 2 -6 -9 29 -15 52 5 55 48 2 24 8 30 32 35 29 6
29 6 -7 8 -21 0 -38 0 -38 -2z"/>
<path d="M2265 2280 c-8 -13 5 -13 25 0 13 8 13 10 -2 10 -9 0 -20 -4 -23 -10z"/>
<path d="M2220 2270 c0 -5 5 -10 10 -10 6 0 10 5 10 10 0 6 -4 10 -10 10 -5 0
-10 -4 -10 -10z"/>
<path d="M2178 2263 c7 -3 16 -2 19 1 4 3 -2 6 -13 5 -11 0 -14 -3 -6 -6z"/>
<path d="M2128 2253 c7 -3 16 -2 19 1 4 3 -2 6 -13 5 -11 0 -14 -3 -6 -6z"/>
<path d="M2348 2253 c7 -3 16 -2 19 1 4 3 -2 6 -13 5 -11 0 -14 -3 -6 -6z"/>
<path d="M2088 2243 c7 -3 16 -2 19 1 4 3 -2 6 -13 5 -11 0 -14 -3 -6 -6z"/>
<path d="M2376 2225 c-31 -9 -36 -13 -22 -18 10 -4 25 -7 34 -7 15 0 15 2 2
10 -9 6 5 7 43 3 36 -4 57 -2 57 5 0 5 -7 12 -15 16 -8 3 -15 1 -15 -4 0 -6
-5 -10 -11 -10 -5 0 -8 4 -5 8 7 12 -24 11 -68 -3z"/>
<path d="M2210 2220 c13 -8 12 -10 -4 -10 -11 0 -17 -2 -14 -5 3 -4 18 -3 34
1 25 6 26 8 9 15 -28 11 -43 10 -25 -1z"/>
<path d="M2752 2210 c7 -11 16 -20 20 -20 5 0 3 9 -4 20 -7 11 -16 20 -20 20
-5 0 -3 -9 4 -20z"/>
<path d="M2298 2213 c7 -3 16 -2 19 1 4 3 -2 6 -13 5 -11 0 -14 -3 -6 -6z"/>
<path d="M2541 2204 c0 -11 3 -14 6 -6 3 7 2 16 -1 19 -3 4 -6 -2 -5 -13z"/>
<path d="M1462 2185 c0 -16 2 -22 5 -12 2 9 2 23 0 30 -3 6 -5 -1 -5 -18z"/>
<path d="M2245 2200 c-36 -14 7 -22 61 -11 l49 10 -50 -4 c-35 -3 -45 -2 -35
5 18 12 3 12 -25 0z"/>
<path d="M2490 2191 c0 -5 5 -13 10 -16 6 -3 10 -2 10 4 0 5 -4 13 -10 16 -5
3 -10 2 -10 -4z"/>
<path d="M2130 2168 c-27 -16 -30 -19 -10 -14 14 3 31 6 38 6 7 0 10 5 6 11
-4 8 4 9 27 5 25 -4 29 -4 14 3 -27 13 -34 12 -75 -11z"/>
<path d="M2735 2180 c3 -5 8 -10 11 -10 2 0 4 5 4 10 0 6 -5 10 -11 10 -5 0
-7 -4 -4 -10z"/>
<path d="M1896 2165 c-3 -9 -6 -22 -5 -28 0 -7 5 -1 10 12 5 13 8 26 5 28 -2
2 -6 -3 -10 -12z"/>
<path d="M2524 2151 c0 -23 4 -27 13 -19 9 7 13 7 13 -2 0 -8 3 -11 6 -7 4 3
-3 17 -14 31 l-20 26 2 -29z"/>
<path d="M3246 2155 c4 -8 8 -15 10 -15 2 0 4 7 4 15 0 8 -4 15 -10 15 -5 0
-7 -7 -4 -15z"/>
<path d="M3225 2151 c3 -5 -3 -11 -12 -13 -13 -3 -10 -6 9 -10 24 -4 26 -3 17
13 -5 11 -12 19 -15 19 -3 0 -3 -4 1 -9z"/>
<path d="M3421 2145 c0 -11 6 -47 13 -80 8 -33 14 -51 15 -40 0 11 -6 47 -13
80 -8 33 -14 51 -15 40z"/>
<path d="M1472 2125 c0 -16 2 -22 5 -12 2 9 2 23 0 30 -3 6 -5 -1 -5 -18z"/>
<path d="M1995 2140 c-4 -6 -10 -8 -15 -5 -5 3 -12 0 -16 -6 -4 -8 -3 -9 4 -5
7 4 12 1 12 -9 0 -9 -5 -13 -10 -10 -6 4 -8 -8 -5 -32 4 -23 2 -33 -3 -25 -6
8 -9 0 -9 -25 0 -21 -3 -65 -7 -98 -3 -33 5 -3 18 67 26 135 32 152 47 143 5
-4 9 -1 9 4 0 14 -17 14 -25 1z"/>
<path d="M2048 2143 c7 -3 16 -2 19 1 4 3 -2 6 -13 5 -11 0 -14 -3 -6 -6z"/>
<path d="M3120 2137 c0 -10 8 -17 18 -17 9 0 13 4 7 8 -5 4 -13 11 -17 16 -5
5 -8 2 -8 -7z"/>
<path d="M3158 2138 c5 -5 16 -8 23 -6 8 3 3 7 -10 11 -17 4 -21 3 -13 -5z"/>
<path d="M1910 2114 c0 -8 5 -12 10 -9 6 4 8 11 5 16 -9 14 -15 11 -15 -7z"/>
<path d="M2800 2101 c0 -6 4 -13 10 -16 6 -3 7 1 4 9 -7 18 -14 21 -14 7z"/>
<path d="M3261 2100 c-1 -16 -35 -50 -61 -62 -10 -4 -6 -7 13 -7 15 -1 26 2
26 7 -3 18 2 26 10 13 6 -9 11 -10 15 -2 4 6 1 11 -6 11 -10 0 -10 2 0 9 8 5
12 17 9 27 -3 13 -5 14 -6 4z"/>
<path d="M1482 2070 c0 -14 4 -36 8 -50 l8 -25 0 25 c0 14 -4 36 -8 50 l-8 25
0 -25z"/>
<path d="M2564 2063 c1 -8 29 -64 62 -124 43 -80 63 -107 74 -103 8 3 32 8 53
11 20 3 37 9 37 14 0 7 -43 4 -77 -6 -18 -6 -39 16 -72 78 -29 53 -30 62 -8
58 5 -1 6 3 2 8 -3 6 -12 8 -19 5 -23 -9 -28 13 -11 48 14 29 14 31 0 14 -8
-11 -15 -25 -15 -30 0 -6 -4 -4 -10 4 -5 9 -5 19 0 25 6 8 5 12 -4 12 -8 0
-13 -7 -12 -14z"/>
<path d="M3130 2040 c0 -11 4 -20 10 -20 5 0 7 6 4 13 -3 8 6 14 28 15 48 4
48 12 0 12 -35 0 -42 -3 -42 -20z"/>
<path d="M2620 2041 c0 -6 4 -13 10 -16 6 -3 7 1 4 9 -7 18 -14 21 -14 7z"/>
<path d="M2886 1997 c3 -10 9 -15 12 -12 3 3 0 11 -7 18 -10 9 -11 8 -5 -6z"/>
<path d="M2915 1999 c-4 -6 -4 -13 -1 -16 3 -4 6 0 6 7 0 9 9 5 25 -10 14 -13
24 -29 21 -35 -2 -7 0 -18 5 -26 7 -11 9 -11 9 -1 0 8 5 10 12 6 6 -4 -3 14
-22 39 -34 48 -44 55 -55 36z"/>
<path d="M1502 1965 c0 -16 2 -22 5 -12 2 9 2 23 0 30 -3 6 -5 -1 -5 -18z"/>
<path d="M1820 1971 c0 -11 -3 -28 -6 -38 -4 -14 -4 -15 4 -3 17 27 24 60 13
60 -6 0 -11 -9 -11 -19z"/>
<path d="M3253 1974 c4 -4 28 -9 54 -12 27 -2 54 -9 61 -14 17 -15 15 -2 -4
16 -10 10 -33 16 -66 16 -28 0 -48 -3 -45 -6z"/>
<path d="M3153 1963 c-7 -2 -13 -12 -13 -21 0 -10 3 -13 8 -7 4 6 17 10 30 11
75 2 87 4 72 14 -16 10 -76 12 -97 3z m44 -9 c-3 -3 -12 -4 -19 -1 -8 3 -5 6
6 6 11 1 17 -2 13 -5z"/>
<path d="M2915 1940 c10 -11 20 -20 23 -20 3 0 -3 9 -13 20 -10 11 -20 20 -23
20 -3 0 3 -9 13 -20z"/>
<path d="M3063 1953 c-7 -3 -13 -12 -13 -21 0 -11 3 -13 8 -6 4 6 14 13 22 16
7 2 10 7 5 10 -6 3 -16 3 -22 1z"/>
<path d="M2893 1920 c6 -11 21 -19 32 -19 17 1 17 2 3 6 -10 2 -18 8 -18 13 0
4 -7 10 -15 14 -12 4 -13 2 -2 -14z"/>
<path d="M1515 1881 c4 -30 8 -66 11 -81 5 -23 1 -29 -27 -40 -91 -38 -230
-150 -279 -225 -10 -15 -40 -40 -66 -55 -53 -30 -125 -100 -171 -165 -95 -135
-185 -417 -212 -667 -17 -155 -18 -151 38 -181 27 -15 53 -27 57 -27 5 0 22
62 37 138 59 281 151 534 219 601 17 17 35 31 38 31 3 0 12 -16 19 -35 6 -19
30 -50 52 -68 80 -69 214 -70 368 -2 94 41 155 52 205 35 49 -16 76 -57 87
-137 18 -126 83 -224 177 -265 243 -108 507 -70 760 109 65 46 75 68 44 96
-26 24 -41 22 -139 -18 -111 -45 -193 -59 -306 -52 -77 4 -94 8 -130 33 -71
51 -82 80 -81 224 0 103 5 142 27 224 15 54 27 100 27 102 0 2 10 4 22 4 12 0
18 3 15 6 -4 4 -128 -15 -277 -41 -299 -53 -315 -53 -381 2 -48 41 -65 90 -99
298 -31 194 -45 253 -35 156z"/>
<path d="M2681 1899 c11 -22 29 -34 29 -20 0 6 -5 11 -11 11 -6 0 -9 6 -6 13
3 8 -1 14 -8 14 -10 0 -11 -5 -4 -18z"/>
<path d="M1796 1873 c-4 -21 -10 -47 -13 -58 -3 -11 -3 -17 1 -14 10 10 34
109 26 109 -4 0 -11 -17 -14 -37z"/>
<path d="M2975 1899 c-16 -6 -14 -8 13 -8 33 -1 41 4 20 12 -7 2 -22 1 -33 -4z"/>
<path d="M2838 1893 c7 -3 16 -2 19 1 4 3 -2 6 -13 5 -11 0 -14 -3 -6 -6z"/>
<path d="M2857 1880 c-27 -5 -52 -12 -55 -15 -7 -7 61 1 118 15 47 11 3 11
-63 0z"/>
<path d="M1926 1808 c-5 -29 -7 -64 -7 -77 1 -21 -2 -23 -37 -17 -27 5 -33 4
-22 -3 8 -6 27 -11 41 -11 25 0 26 2 33 76 8 88 2 109 -8 32z"/>
<path d="M1801 1804 c-6 -15 -10 -29 -7 -31 2 -2 7 5 11 16 3 12 11 21 16 21
5 0 9 5 9 10 0 19 -17 10 -29 -16z"/>
<path d="M1816 1775 c-9 -26 -7 -32 5 -12 6 10 9 21 6 23 -2 3 -7 -2 -11 -11z"/>
<path d="M1771 1770 c1 -8 -3 -28 -9 -43 -18 -43 -15 -56 11 -49 18 5 19 7 4
10 -13 3 -16 9 -11 25 3 12 10 27 15 32 4 6 3 17 -2 25 -9 13 -10 13 -8 0z"/>
<path d="M1876 1735 c10 -8 24 -14 29 -14 6 0 1 6 -9 14 -11 8 -24 15 -30 15
-5 0 -1 -7 10 -15z"/>
<path d="M1811 1697 c-13 -21 -12 -21 5 -5 10 10 16 20 13 22 -3 3 -11 -5 -18
-17z"/>
<path d="M2620 1530 c-47 -10 -76 -18 -65 -18 11 -1 61 7 110 17 50 10 79 19
65 19 -14 0 -63 -8 -110 -18z"/>
<path d="M2493 1503 c9 -2 23 -2 30 0 6 3 -1 5 -18 5 -16 0 -22 -2 -12 -5z"/>
<path d="M2370 1485 c-30 -7 -46 -13 -35 -13 11 -1 47 5 80 12 33 8 49 14 35
14 -14 0 -50 -6 -80 -13z"/>
<path d="M3715 1311 c-84 -42 -128 -85 -166 -166 -28 -58 -34 -82 -34 -136 0
-58 5 -77 40 -145 47 -92 104 -142 199 -174 75 -25 118 -25 189 -1 111 38 177
100 217 201 29 74 25 193 -9 261 -82 164 -280 236 -436 160z"/>
<path d="M1515 1001 c-150 -27 -271 -178 -269 -336 1 -83 41 -170 108 -233 69
-65 128 -87 236 -87 74 0 93 4 143 29 124 62 197 195 183 334 -20 192 -207
329 -401 293z"/>
</g>
</svg>
